<mxfile host="65bd71144e">
    <diagram name="หน้า-1" id="OtUY20f2kCp28I3LD6lT">
        <mxGraphModel dx="2004" dy="1126" grid="1" gridSize="10" guides="1" tooltips="1" connect="1" arrows="1" fold="1" page="1" pageScale="1" pageWidth="827" pageHeight="1169" math="0" shadow="0">
            <root>
                <mxCell id="0"/>
                <mxCell id="1" parent="0"/>
                <mxCell id="fNfprqZ7PDnBtlyKB6TT-1" value="&lt;font style=&quot;font-size: 18px;&quot;&gt;start&lt;/font&gt;" style="ellipse;whiteSpace=wrap;html=1;" parent="1" vertex="1">
                    <mxGeometry x="350" y="20" width="90" height="60" as="geometry"/>
                </mxCell>
                <mxCell id="fNfprqZ7PDnBtlyKB6TT-63" style="edgeStyle=orthogonalEdgeStyle;rounded=0;orthogonalLoop=1;jettySize=auto;html=1;exitX=0.5;exitY=1;exitDx=0;exitDy=0;entryX=0.5;entryY=0;entryDx=0;entryDy=0;" parent="1" source="fNfprqZ7PDnBtlyKB6TT-2" target="fNfprqZ7PDnBtlyKB6TT-62" edge="1">
                    <mxGeometry relative="1" as="geometry"/>
                </mxCell>
                <mxCell id="fNfprqZ7PDnBtlyKB6TT-2" value="&lt;div style=&quot;font-size: 14px;&quot;&gt;&lt;span style=&quot;background-color: initial;&quot;&gt;เงินในตู้ = 500*&amp;nbsp;&lt;/span&gt;&lt;span style=&quot;background-color: initial;&quot;&gt;BANK500 + 100*&amp;nbsp;&lt;/span&gt;&lt;span style=&quot;background-color: initial;&quot;&gt;BANK100 + 50*&amp;nbsp;&lt;/span&gt;&lt;span style=&quot;background-color: initial;&quot;&gt;BANK50 + 20*&amp;nbsp;&lt;/span&gt;&lt;span style=&quot;background-color: initial;&quot;&gt;BANK20 + 10*&amp;nbsp;&lt;/span&gt;&lt;span style=&quot;background-color: initial;&quot;&gt;BANK10+5* BANK5&lt;/span&gt;&lt;br&gt;&lt;/div&gt;&lt;div style=&quot;font-size: 14px;&quot;&gt;&lt;font style=&quot;font-size: 14px;&quot;&gt;&lt;span style=&quot;background-color: initial;&quot;&gt;&lt;br&gt;&lt;/span&gt;&lt;/font&gt;&lt;/div&gt;" style="rounded=0;whiteSpace=wrap;html=1;" parent="1" vertex="1">
                    <mxGeometry x="87.5" y="580" width="625" height="50" as="geometry"/>
                </mxCell>
                <mxCell id="fNfprqZ7PDnBtlyKB6TT-3" value="กดเลือกสินค้าในตู้" style="shape=parallelogram;perimeter=parallelogramPerimeter;whiteSpace=wrap;html=1;fixedSize=1;" parent="1" vertex="1">
                    <mxGeometry x="333.75" y="1259" width="120" height="50" as="geometry"/>
                </mxCell>
                <mxCell id="fNfprqZ7PDnBtlyKB6TT-42" style="edgeStyle=orthogonalEdgeStyle;rounded=0;orthogonalLoop=1;jettySize=auto;html=1;exitX=0.5;exitY=1;exitDx=0;exitDy=0;" parent="1" source="fNfprqZ7PDnBtlyKB6TT-4" edge="1">
                    <mxGeometry relative="1" as="geometry">
                        <mxPoint x="387.6104651162791" y="1399" as="targetPoint"/>
                    </mxGeometry>
                </mxCell>
                <mxCell id="fNfprqZ7PDnBtlyKB6TT-4" value="แสดง &quot;กรุณาชำระเงิน&quot;" style="shape=parallelogram;perimeter=parallelogramPerimeter;whiteSpace=wrap;html=1;fixedSize=1;" parent="1" vertex="1">
                    <mxGeometry x="321.25" y="1329" width="132.5" height="50" as="geometry"/>
                </mxCell>
                <mxCell id="fNfprqZ7PDnBtlyKB6TT-44" style="edgeStyle=orthogonalEdgeStyle;rounded=0;orthogonalLoop=1;jettySize=auto;html=1;entryX=0.5;entryY=0;entryDx=0;entryDy=0;" parent="1" source="fNfprqZ7PDnBtlyKB6TT-6" target="fNfprqZ7PDnBtlyKB6TT-21" edge="1">
                    <mxGeometry relative="1" as="geometry"/>
                </mxCell>
                <mxCell id="fNfprqZ7PDnBtlyKB6TT-6" value="input เงินเข้า" style="shape=parallelogram;perimeter=parallelogramPerimeter;whiteSpace=wrap;html=1;fixedSize=1;" parent="1" vertex="1">
                    <mxGeometry x="331.25" y="1399" width="112.5" height="50" as="geometry"/>
                </mxCell>
                <mxCell id="fNfprqZ7PDnBtlyKB6TT-26" style="edgeStyle=orthogonalEdgeStyle;rounded=0;orthogonalLoop=1;jettySize=auto;html=1;exitX=0.5;exitY=1;exitDx=0;exitDy=0;entryX=0.5;entryY=0;entryDx=0;entryDy=0;" parent="1" source="fNfprqZ7PDnBtlyKB6TT-8" target="fNfprqZ7PDnBtlyKB6TT-9" edge="1">
                    <mxGeometry relative="1" as="geometry"/>
                </mxCell>
                <mxCell id="fNfprqZ7PDnBtlyKB6TT-8" value="&#xa;&lt;font style=&quot;forced-color-adjust: none; color: rgb(0, 0, 0); font-family: Helvetica; font-style: normal; font-variant-ligatures: normal; font-variant-caps: normal; font-weight: 400; letter-spacing: normal; orphans: 2; text-indent: 0px; text-transform: none; widows: 2; word-spacing: 0px; -webkit-text-stroke-width: 0px; white-space: normal; background-color: rgb(251, 251, 251); text-decoration-thickness: initial; text-decoration-style: initial; text-decoration-color: initial; font-size: 14px;&quot;&gt;BANK500 = 0&lt;/font&gt;&lt;br class=&quot;Apple-interchange-newline&quot;&gt;&#xa;&#xa;" style="rounded=0;whiteSpace=wrap;html=1;align=center;" parent="1" vertex="1">
                    <mxGeometry x="340" y="100" width="120" height="60" as="geometry"/>
                </mxCell>
                <mxCell id="fNfprqZ7PDnBtlyKB6TT-27" style="edgeStyle=orthogonalEdgeStyle;rounded=0;orthogonalLoop=1;jettySize=auto;html=1;exitX=0.5;exitY=1;exitDx=0;exitDy=0;entryX=0.5;entryY=0;entryDx=0;entryDy=0;" parent="1" source="fNfprqZ7PDnBtlyKB6TT-9" target="fNfprqZ7PDnBtlyKB6TT-11" edge="1">
                    <mxGeometry relative="1" as="geometry"/>
                </mxCell>
                <mxCell id="fNfprqZ7PDnBtlyKB6TT-9" value="&lt;span style=&quot;font-size: 14px;&quot;&gt;BANK100 = 5&lt;/span&gt;" style="rounded=0;whiteSpace=wrap;html=1;align=center;" parent="1" vertex="1">
                    <mxGeometry x="340" y="180" width="120" height="60" as="geometry"/>
                </mxCell>
                <mxCell id="fNfprqZ7PDnBtlyKB6TT-29" style="edgeStyle=orthogonalEdgeStyle;rounded=0;orthogonalLoop=1;jettySize=auto;html=1;exitX=0.5;exitY=1;exitDx=0;exitDy=0;entryX=0.5;entryY=0;entryDx=0;entryDy=0;" parent="1" source="fNfprqZ7PDnBtlyKB6TT-10" target="fNfprqZ7PDnBtlyKB6TT-12" edge="1">
                    <mxGeometry relative="1" as="geometry"/>
                </mxCell>
                <mxCell id="fNfprqZ7PDnBtlyKB6TT-10" value="&lt;span style=&quot;font-size: 14px;&quot;&gt;BANK50 = 20&lt;/span&gt;" style="rounded=0;whiteSpace=wrap;html=1;align=center;" parent="1" vertex="1">
                    <mxGeometry x="340" y="340" width="120" height="60" as="geometry"/>
                </mxCell>
                <mxCell id="fNfprqZ7PDnBtlyKB6TT-28" style="edgeStyle=orthogonalEdgeStyle;rounded=0;orthogonalLoop=1;jettySize=auto;html=1;exitX=0.5;exitY=1;exitDx=0;exitDy=0;entryX=0.5;entryY=0;entryDx=0;entryDy=0;" parent="1" source="fNfprqZ7PDnBtlyKB6TT-11" target="fNfprqZ7PDnBtlyKB6TT-10" edge="1">
                    <mxGeometry relative="1" as="geometry"/>
                </mxCell>
                <mxCell id="fNfprqZ7PDnBtlyKB6TT-11" value="&lt;div style=&quot;font-size: 14px;&quot;&gt;&lt;span style=&quot;background-color: initial;&quot;&gt;BANK20 = 10&lt;/span&gt;&lt;br&gt;&lt;/div&gt;&lt;div&gt;&lt;span style=&quot;background-color: initial;&quot;&gt;&lt;br&gt;&lt;/span&gt;&lt;/div&gt;" style="rounded=0;whiteSpace=wrap;html=1;align=center;" parent="1" vertex="1">
                    <mxGeometry x="340" y="260" width="120" height="60" as="geometry"/>
                </mxCell>
                <mxCell id="fNfprqZ7PDnBtlyKB6TT-30" style="edgeStyle=orthogonalEdgeStyle;rounded=0;orthogonalLoop=1;jettySize=auto;html=1;exitX=0.5;exitY=1;exitDx=0;exitDy=0;entryX=0.5;entryY=0;entryDx=0;entryDy=0;" parent="1" source="fNfprqZ7PDnBtlyKB6TT-12" target="fNfprqZ7PDnBtlyKB6TT-13" edge="1">
                    <mxGeometry relative="1" as="geometry"/>
                </mxCell>
                <mxCell id="fNfprqZ7PDnBtlyKB6TT-12" value="&lt;span style=&quot;font-size: 14px;&quot;&gt;BANK10 = 1000&lt;/span&gt;" style="rounded=0;whiteSpace=wrap;html=1;align=center;" parent="1" vertex="1">
                    <mxGeometry x="340" y="420" width="120" height="60" as="geometry"/>
                </mxCell>
                <mxCell id="fNfprqZ7PDnBtlyKB6TT-35" style="edgeStyle=orthogonalEdgeStyle;rounded=0;orthogonalLoop=1;jettySize=auto;html=1;" parent="1" source="fNfprqZ7PDnBtlyKB6TT-13" edge="1">
                    <mxGeometry relative="1" as="geometry">
                        <mxPoint x="400" y="580" as="targetPoint"/>
                    </mxGeometry>
                </mxCell>
                <mxCell id="fNfprqZ7PDnBtlyKB6TT-13" value="&lt;span style=&quot;font-size: 14px;&quot;&gt;BANK5 = 100&lt;/span&gt;" style="rounded=0;whiteSpace=wrap;html=1;align=center;" parent="1" vertex="1">
                    <mxGeometry x="340" y="500" width="120" height="60" as="geometry"/>
                </mxCell>
                <mxCell id="fNfprqZ7PDnBtlyKB6TT-39" style="edgeStyle=orthogonalEdgeStyle;rounded=0;orthogonalLoop=1;jettySize=auto;html=1;entryX=0.5;entryY=0;entryDx=0;entryDy=0;" parent="1" source="fNfprqZ7PDnBtlyKB6TT-19" target="fNfprqZ7PDnBtlyKB6TT-20" edge="1">
                    <mxGeometry relative="1" as="geometry"/>
                </mxCell>
                <mxCell id="fNfprqZ7PDnBtlyKB6TT-19" value="&lt;span style=&quot;font-size: 14px;&quot;&gt;เงินเข้า = 0&lt;/span&gt;" style="rounded=0;whiteSpace=wrap;html=1;align=center;" parent="1" vertex="1">
                    <mxGeometry x="340" y="810" width="120" height="60" as="geometry"/>
                </mxCell>
                <mxCell id="fNfprqZ7PDnBtlyKB6TT-40" style="edgeStyle=orthogonalEdgeStyle;rounded=0;orthogonalLoop=1;jettySize=auto;html=1;exitX=0.5;exitY=1;exitDx=0;exitDy=0;" parent="1" edge="1">
                    <mxGeometry relative="1" as="geometry">
                        <mxPoint x="397.37790697674427" y="1259" as="targetPoint"/>
                        <mxPoint x="397.5" y="1239" as="sourcePoint"/>
                    </mxGeometry>
                </mxCell>
                <mxCell id="fNfprqZ7PDnBtlyKB6TT-296" style="edgeStyle=orthogonalEdgeStyle;rounded=0;orthogonalLoop=1;jettySize=auto;html=1;exitX=0.5;exitY=1;exitDx=0;exitDy=0;entryX=0.5;entryY=0;entryDx=0;entryDy=0;" parent="1" source="fNfprqZ7PDnBtlyKB6TT-20" target="fNfprqZ7PDnBtlyKB6TT-290" edge="1">
                    <mxGeometry relative="1" as="geometry"/>
                </mxCell>
                <mxCell id="fNfprqZ7PDnBtlyKB6TT-20" value="&lt;span style=&quot;font-size: 14px;&quot;&gt;ทอน = 0&lt;/span&gt;" style="rounded=0;whiteSpace=wrap;html=1;align=center;" parent="1" vertex="1">
                    <mxGeometry x="340" y="890" width="120" height="60" as="geometry"/>
                </mxCell>
                <mxCell id="fNfprqZ7PDnBtlyKB6TT-45" style="edgeStyle=orthogonalEdgeStyle;rounded=0;orthogonalLoop=1;jettySize=auto;html=1;exitX=0.5;exitY=1;exitDx=0;exitDy=0;" parent="1" source="fNfprqZ7PDnBtlyKB6TT-21" edge="1">
                    <mxGeometry relative="1" as="geometry">
                        <mxPoint x="386.8611111111111" y="1579" as="targetPoint"/>
                    </mxGeometry>
                </mxCell>
                <mxCell id="fNfprqZ7PDnBtlyKB6TT-47" style="edgeStyle=orthogonalEdgeStyle;rounded=0;orthogonalLoop=1;jettySize=auto;html=1;" parent="1" source="fNfprqZ7PDnBtlyKB6TT-21" edge="1">
                    <mxGeometry relative="1" as="geometry">
                        <mxPoint x="293.75" y="1509" as="targetPoint"/>
                    </mxGeometry>
                </mxCell>
                <mxCell id="fNfprqZ7PDnBtlyKB6TT-21" value="เงินเข้าสู่ระบบหรือไม่" style="rhombus;whiteSpace=wrap;html=1;" parent="1" vertex="1">
                    <mxGeometry x="331.25" y="1469" width="111.25" height="80" as="geometry"/>
                </mxCell>
                <mxCell id="fNfprqZ7PDnBtlyKB6TT-38" style="edgeStyle=orthogonalEdgeStyle;rounded=0;orthogonalLoop=1;jettySize=auto;html=1;entryX=0.5;entryY=0;entryDx=0;entryDy=0;" parent="1" source="fNfprqZ7PDnBtlyKB6TT-23" target="fNfprqZ7PDnBtlyKB6TT-19" edge="1">
                    <mxGeometry relative="1" as="geometry"/>
                </mxCell>
                <mxCell id="fNfprqZ7PDnBtlyKB6TT-23" value="&lt;span style=&quot;font-size: 14px;&quot;&gt;loop = 0&lt;/span&gt;" style="rounded=0;whiteSpace=wrap;html=1;align=center;" parent="1" vertex="1">
                    <mxGeometry x="340" y="730" width="120" height="60" as="geometry"/>
                </mxCell>
                <mxCell id="fNfprqZ7PDnBtlyKB6TT-25" style="edgeStyle=orthogonalEdgeStyle;rounded=0;orthogonalLoop=1;jettySize=auto;html=1;entryX=0.458;entryY=0;entryDx=0;entryDy=0;entryPerimeter=0;" parent="1" source="fNfprqZ7PDnBtlyKB6TT-1" target="fNfprqZ7PDnBtlyKB6TT-8" edge="1">
                    <mxGeometry relative="1" as="geometry"/>
                </mxCell>
                <mxCell id="fNfprqZ7PDnBtlyKB6TT-37" style="edgeStyle=orthogonalEdgeStyle;rounded=0;orthogonalLoop=1;jettySize=auto;html=1;exitX=0.5;exitY=1;exitDx=0;exitDy=0;entryX=0.469;entryY=0;entryDx=0;entryDy=0;entryPerimeter=0;" parent="1" target="fNfprqZ7PDnBtlyKB6TT-23" edge="1">
                    <mxGeometry relative="1" as="geometry">
                        <mxPoint x="396.25" y="710" as="sourcePoint"/>
                    </mxGeometry>
                </mxCell>
                <mxCell id="fNfprqZ7PDnBtlyKB6TT-41" style="edgeStyle=orthogonalEdgeStyle;rounded=0;orthogonalLoop=1;jettySize=auto;html=1;entryX=0.554;entryY=0;entryDx=0;entryDy=0;entryPerimeter=0;" parent="1" source="fNfprqZ7PDnBtlyKB6TT-3" target="fNfprqZ7PDnBtlyKB6TT-4" edge="1">
                    <mxGeometry relative="1" as="geometry"/>
                </mxCell>
                <mxCell id="fNfprqZ7PDnBtlyKB6TT-46" value="Y" style="text;html=1;align=center;verticalAlign=middle;whiteSpace=wrap;rounded=0;" parent="1" vertex="1">
                    <mxGeometry x="367.5" y="1539" width="60" height="30" as="geometry"/>
                </mxCell>
                <mxCell id="fNfprqZ7PDnBtlyKB6TT-48" value="N" style="text;html=1;align=center;verticalAlign=middle;whiteSpace=wrap;rounded=0;" parent="1" vertex="1">
                    <mxGeometry x="283.75" y="1479" width="60" height="30" as="geometry"/>
                </mxCell>
                <mxCell id="fNfprqZ7PDnBtlyKB6TT-52" style="edgeStyle=orthogonalEdgeStyle;rounded=0;orthogonalLoop=1;jettySize=auto;html=1;entryX=1;entryY=0.5;entryDx=0;entryDy=0;" parent="1" source="fNfprqZ7PDnBtlyKB6TT-49" target="fNfprqZ7PDnBtlyKB6TT-51" edge="1">
                    <mxGeometry relative="1" as="geometry"/>
                </mxCell>
                <mxCell id="fNfprqZ7PDnBtlyKB6TT-49" value="loop +1&amp;nbsp;" style="rounded=0;whiteSpace=wrap;html=1;" parent="1" vertex="1">
                    <mxGeometry x="243.75" y="1496.5" width="50" height="25" as="geometry"/>
                </mxCell>
                <mxCell id="fNfprqZ7PDnBtlyKB6TT-51" value="loop= 5" style="rhombus;whiteSpace=wrap;html=1;" parent="1" vertex="1">
                    <mxGeometry x="163.75" y="1489" width="60" height="40" as="geometry"/>
                </mxCell>
                <mxCell id="fNfprqZ7PDnBtlyKB6TT-54" value="" style="endArrow=none;html=1;rounded=0;entryX=0.5;entryY=0;entryDx=0;entryDy=0;" parent="1" target="fNfprqZ7PDnBtlyKB6TT-51" edge="1">
                    <mxGeometry width="50" height="50" relative="1" as="geometry">
                        <mxPoint x="193.5" y="1389" as="sourcePoint"/>
                        <mxPoint x="293.75" y="1469" as="targetPoint"/>
                    </mxGeometry>
                </mxCell>
                <mxCell id="fNfprqZ7PDnBtlyKB6TT-55" value="" style="endArrow=classic;html=1;rounded=0;" parent="1" edge="1">
                    <mxGeometry width="50" height="50" relative="1" as="geometry">
                        <mxPoint x="187.5" y="1389" as="sourcePoint"/>
                        <mxPoint x="377.5" y="1389" as="targetPoint"/>
                    </mxGeometry>
                </mxCell>
                <mxCell id="fNfprqZ7PDnBtlyKB6TT-56" value="N" style="text;html=1;align=center;verticalAlign=middle;whiteSpace=wrap;rounded=0;" parent="1" vertex="1">
                    <mxGeometry x="173.75" y="1469" width="60" height="30" as="geometry"/>
                </mxCell>
                <mxCell id="fNfprqZ7PDnBtlyKB6TT-57" value="" style="endArrow=none;html=1;rounded=0;entryX=0;entryY=0.5;entryDx=0;entryDy=0;" parent="1" target="fNfprqZ7PDnBtlyKB6TT-51" edge="1">
                    <mxGeometry width="50" height="50" relative="1" as="geometry">
                        <mxPoint x="133.75" y="1509" as="sourcePoint"/>
                        <mxPoint x="203.75" y="1389" as="targetPoint"/>
                    </mxGeometry>
                </mxCell>
                <mxCell id="fNfprqZ7PDnBtlyKB6TT-58" value="" style="endArrow=none;html=1;rounded=0;" parent="1" edge="1">
                    <mxGeometry width="50" height="50" relative="1" as="geometry">
                        <mxPoint x="133.75" y="1509" as="sourcePoint"/>
                        <mxPoint x="133.75" y="1249" as="targetPoint"/>
                    </mxGeometry>
                </mxCell>
                <mxCell id="fNfprqZ7PDnBtlyKB6TT-59" value="" style="endArrow=classic;html=1;rounded=0;" parent="1" edge="1">
                    <mxGeometry width="50" height="50" relative="1" as="geometry">
                        <mxPoint x="133.75" y="1249" as="sourcePoint"/>
                        <mxPoint x="383.75" y="1249" as="targetPoint"/>
                    </mxGeometry>
                </mxCell>
                <mxCell id="fNfprqZ7PDnBtlyKB6TT-65" style="edgeStyle=orthogonalEdgeStyle;rounded=0;orthogonalLoop=1;jettySize=auto;html=1;exitX=0.5;exitY=1;exitDx=0;exitDy=0;entryX=0.5;entryY=0;entryDx=0;entryDy=0;" parent="1" source="fNfprqZ7PDnBtlyKB6TT-60" target="fNfprqZ7PDnBtlyKB6TT-64" edge="1">
                    <mxGeometry relative="1" as="geometry"/>
                </mxCell>
                <mxCell id="fNfprqZ7PDnBtlyKB6TT-60" value="เงินเข้า - ของ = ทอน" style="rounded=0;whiteSpace=wrap;html=1;" parent="1" vertex="1">
                    <mxGeometry x="326.88" y="1579" width="120" height="60" as="geometry"/>
                </mxCell>
                <mxCell id="fNfprqZ7PDnBtlyKB6TT-62" value="&lt;span style=&quot;font-size: 14px;&quot;&gt;ของ = 45&lt;/span&gt;" style="rounded=0;whiteSpace=wrap;html=1;align=center;" parent="1" vertex="1">
                    <mxGeometry x="340" y="650" width="120" height="60" as="geometry"/>
                </mxCell>
                <mxCell id="fNfprqZ7PDnBtlyKB6TT-67" style="edgeStyle=orthogonalEdgeStyle;rounded=0;orthogonalLoop=1;jettySize=auto;html=1;entryX=0;entryY=0.5;entryDx=0;entryDy=0;" parent="1" source="fNfprqZ7PDnBtlyKB6TT-64" edge="1">
                    <mxGeometry relative="1" as="geometry">
                        <mxPoint x="497.4999999999998" y="1699" as="targetPoint"/>
                    </mxGeometry>
                </mxCell>
                <mxCell id="fNfprqZ7PDnBtlyKB6TT-69" style="edgeStyle=orthogonalEdgeStyle;rounded=0;orthogonalLoop=1;jettySize=auto;html=1;" parent="1" source="fNfprqZ7PDnBtlyKB6TT-64" edge="1">
                    <mxGeometry relative="1" as="geometry">
                        <mxPoint x="386.8799999999999" y="1759" as="targetPoint"/>
                    </mxGeometry>
                </mxCell>
                <mxCell id="fNfprqZ7PDnBtlyKB6TT-64" value="เงินในตู้ &amp;gt;= ทอน" style="rhombus;whiteSpace=wrap;html=1;" parent="1" vertex="1">
                    <mxGeometry x="336.57" y="1659" width="100.62" height="80" as="geometry"/>
                </mxCell>
                <mxCell id="fNfprqZ7PDnBtlyKB6TT-73" style="edgeStyle=orthogonalEdgeStyle;rounded=0;orthogonalLoop=1;jettySize=auto;html=1;exitX=0.5;exitY=0;exitDx=0;exitDy=0;entryX=0.5;entryY=1;entryDx=0;entryDy=0;" parent="1" edge="1">
                    <mxGeometry relative="1" as="geometry">
                        <mxPoint x="567.4999999999998" y="1679" as="sourcePoint"/>
                        <mxPoint x="567.4999999999998" y="1629" as="targetPoint"/>
                    </mxGeometry>
                </mxCell>
                <mxCell id="fNfprqZ7PDnBtlyKB6TT-68" value="N" style="text;html=1;align=center;verticalAlign=middle;whiteSpace=wrap;rounded=0;" parent="1" vertex="1">
                    <mxGeometry x="417.5" y="1669" width="60" height="30" as="geometry"/>
                </mxCell>
                <mxCell id="fNfprqZ7PDnBtlyKB6TT-80" style="edgeStyle=orthogonalEdgeStyle;rounded=0;orthogonalLoop=1;jettySize=auto;html=1;exitX=0.5;exitY=1;exitDx=0;exitDy=0;entryX=0.5;entryY=0;entryDx=0;entryDy=0;" parent="1" edge="1">
                    <mxGeometry relative="1" as="geometry">
                        <mxPoint x="386.25" y="1943.9999999999998" as="sourcePoint"/>
                        <mxPoint x="387.4999999999999" y="1963.9999999999998" as="targetPoint"/>
                    </mxGeometry>
                </mxCell>
                <mxCell id="fNfprqZ7PDnBtlyKB6TT-276" style="edgeStyle=orthogonalEdgeStyle;rounded=0;orthogonalLoop=1;jettySize=auto;html=1;exitX=0.5;exitY=1;exitDx=0;exitDy=0;entryX=0.5;entryY=0;entryDx=0;entryDy=0;" parent="1" source="fNfprqZ7PDnBtlyKB6TT-70" target="fNfprqZ7PDnBtlyKB6TT-275" edge="1">
                    <mxGeometry relative="1" as="geometry"/>
                </mxCell>
                <mxCell id="fNfprqZ7PDnBtlyKB6TT-70" value="ทอนเงิน" style="shape=process;whiteSpace=wrap;html=1;backgroundOutline=1;" parent="1" vertex="1">
                    <mxGeometry x="331.25" y="1759" width="110" height="50" as="geometry"/>
                </mxCell>
                <mxCell id="fNfprqZ7PDnBtlyKB6TT-75" value="" style="endArrow=none;html=1;rounded=0;exitX=0.5;exitY=0;exitDx=0;exitDy=0;" parent="1" edge="1">
                    <mxGeometry width="50" height="50" relative="1" as="geometry">
                        <mxPoint x="567.4999999999998" y="1589" as="sourcePoint"/>
                        <mxPoint x="567.5" y="1249" as="targetPoint"/>
                    </mxGeometry>
                </mxCell>
                <mxCell id="fNfprqZ7PDnBtlyKB6TT-76" value="" style="endArrow=classic;html=1;rounded=0;" parent="1" edge="1">
                    <mxGeometry width="50" height="50" relative="1" as="geometry">
                        <mxPoint x="567.5" y="1249" as="sourcePoint"/>
                        <mxPoint x="407.5" y="1249" as="targetPoint"/>
                    </mxGeometry>
                </mxCell>
                <mxCell id="fNfprqZ7PDnBtlyKB6TT-81" style="edgeStyle=orthogonalEdgeStyle;rounded=0;orthogonalLoop=1;jettySize=auto;html=1;exitX=0.5;exitY=1;exitDx=0;exitDy=0;entryX=0.5;entryY=0;entryDx=0;entryDy=0;" parent="1" target="fNfprqZ7PDnBtlyKB6TT-78" edge="1">
                    <mxGeometry relative="1" as="geometry">
                        <mxPoint x="387.4999999999999" y="2003.9999999999998" as="sourcePoint"/>
                    </mxGeometry>
                </mxCell>
                <mxCell id="fNfprqZ7PDnBtlyKB6TT-82" style="edgeStyle=orthogonalEdgeStyle;rounded=0;orthogonalLoop=1;jettySize=auto;html=1;exitX=0.5;exitY=1;exitDx=0;exitDy=0;entryX=0.5;entryY=0;entryDx=0;entryDy=0;" parent="1" source="fNfprqZ7PDnBtlyKB6TT-78" target="fNfprqZ7PDnBtlyKB6TT-79" edge="1">
                    <mxGeometry relative="1" as="geometry"/>
                </mxCell>
                <mxCell id="fNfprqZ7PDnBtlyKB6TT-78" value="รับสินค้า" style="rounded=0;whiteSpace=wrap;html=1;" parent="1" vertex="1">
                    <mxGeometry x="337.5" y="2024" width="100" height="40" as="geometry"/>
                </mxCell>
                <mxCell id="fNfprqZ7PDnBtlyKB6TT-79" value="End" style="ellipse;whiteSpace=wrap;html=1;" parent="1" vertex="1">
                    <mxGeometry x="355.5" y="2084" width="64" height="40" as="geometry"/>
                </mxCell>
                <mxCell id="fNfprqZ7PDnBtlyKB6TT-92" style="edgeStyle=orthogonalEdgeStyle;rounded=0;orthogonalLoop=1;jettySize=auto;html=1;exitX=0.5;exitY=1;exitDx=0;exitDy=0;entryX=0.5;entryY=0;entryDx=0;entryDy=0;" parent="1" source="fNfprqZ7PDnBtlyKB6TT-83" target="fNfprqZ7PDnBtlyKB6TT-85" edge="1">
                    <mxGeometry relative="1" as="geometry"/>
                </mxCell>
                <mxCell id="fNfprqZ7PDnBtlyKB6TT-83" value="Start ทอนเงิน" style="ellipse;whiteSpace=wrap;html=1;fontStyle=1" parent="1" vertex="1">
                    <mxGeometry x="890" y="983.75" width="119" height="55" as="geometry"/>
                </mxCell>
                <mxCell id="fNfprqZ7PDnBtlyKB6TT-84" value="Y" style="text;html=1;align=center;verticalAlign=middle;whiteSpace=wrap;rounded=0;" parent="1" vertex="1">
                    <mxGeometry x="127.5" y="1509" width="60" height="30" as="geometry"/>
                </mxCell>
                <mxCell id="fNfprqZ7PDnBtlyKB6TT-93" style="edgeStyle=orthogonalEdgeStyle;rounded=0;orthogonalLoop=1;jettySize=auto;html=1;entryX=0.5;entryY=0;entryDx=0;entryDy=0;" parent="1" source="fNfprqZ7PDnBtlyKB6TT-85" edge="1">
                    <mxGeometry relative="1" as="geometry">
                        <mxPoint x="949" y="1133.75" as="targetPoint"/>
                    </mxGeometry>
                </mxCell>
                <mxCell id="fNfprqZ7PDnBtlyKB6TT-85" value="เงินเข้า - ของ = ทอน" style="rounded=0;whiteSpace=wrap;html=1;" parent="1" vertex="1">
                    <mxGeometry x="889" y="1053.75" width="120" height="60" as="geometry"/>
                </mxCell>
                <mxCell id="fNfprqZ7PDnBtlyKB6TT-89" value="Y" style="text;html=1;align=center;verticalAlign=middle;whiteSpace=wrap;rounded=0;" parent="1" vertex="1">
                    <mxGeometry x="377.5" y="1729" width="60" height="30" as="geometry"/>
                </mxCell>
                <mxCell id="fNfprqZ7PDnBtlyKB6TT-101" style="edgeStyle=orthogonalEdgeStyle;rounded=0;orthogonalLoop=1;jettySize=auto;html=1;exitX=0.5;exitY=1;exitDx=0;exitDy=0;entryX=0.5;entryY=0;entryDx=0;entryDy=0;" parent="1" source="fNfprqZ7PDnBtlyKB6TT-95" target="fNfprqZ7PDnBtlyKB6TT-96" edge="1">
                    <mxGeometry relative="1" as="geometry"/>
                </mxCell>
                <mxCell id="fNfprqZ7PDnBtlyKB6TT-122" style="edgeStyle=orthogonalEdgeStyle;rounded=0;orthogonalLoop=1;jettySize=auto;html=1;" parent="1" source="fNfprqZ7PDnBtlyKB6TT-95" target="fNfprqZ7PDnBtlyKB6TT-119" edge="1">
                    <mxGeometry relative="1" as="geometry"/>
                </mxCell>
                <mxCell id="fNfprqZ7PDnBtlyKB6TT-95" value="ทอน &amp;gt;= 500" style="rhombus;whiteSpace=wrap;html=1;" parent="1" vertex="1">
                    <mxGeometry x="908.5" y="1135" width="80" height="60" as="geometry"/>
                </mxCell>
                <mxCell id="fNfprqZ7PDnBtlyKB6TT-102" style="edgeStyle=orthogonalEdgeStyle;rounded=0;orthogonalLoop=1;jettySize=auto;html=1;exitX=0.5;exitY=1;exitDx=0;exitDy=0;entryX=0.5;entryY=0;entryDx=0;entryDy=0;" parent="1" source="fNfprqZ7PDnBtlyKB6TT-96" target="fNfprqZ7PDnBtlyKB6TT-97" edge="1">
                    <mxGeometry relative="1" as="geometry"/>
                </mxCell>
                <mxCell id="fNfprqZ7PDnBtlyKB6TT-169" style="edgeStyle=orthogonalEdgeStyle;rounded=0;orthogonalLoop=1;jettySize=auto;html=1;entryX=0;entryY=0.5;entryDx=0;entryDy=0;" parent="1" source="fNfprqZ7PDnBtlyKB6TT-96" target="fNfprqZ7PDnBtlyKB6TT-147" edge="1">
                    <mxGeometry relative="1" as="geometry"/>
                </mxCell>
                <mxCell id="fNfprqZ7PDnBtlyKB6TT-96" value="ทอน &amp;gt;= 100" style="rhombus;whiteSpace=wrap;html=1;" parent="1" vertex="1">
                    <mxGeometry x="908" y="1205" width="80" height="60" as="geometry"/>
                </mxCell>
                <mxCell id="fNfprqZ7PDnBtlyKB6TT-103" style="edgeStyle=orthogonalEdgeStyle;rounded=0;orthogonalLoop=1;jettySize=auto;html=1;exitX=0.5;exitY=1;exitDx=0;exitDy=0;entryX=0.5;entryY=0;entryDx=0;entryDy=0;" parent="1" source="fNfprqZ7PDnBtlyKB6TT-97" target="fNfprqZ7PDnBtlyKB6TT-98" edge="1">
                    <mxGeometry relative="1" as="geometry"/>
                </mxCell>
                <mxCell id="fNfprqZ7PDnBtlyKB6TT-174" style="edgeStyle=orthogonalEdgeStyle;rounded=0;orthogonalLoop=1;jettySize=auto;html=1;entryX=0;entryY=0.5;entryDx=0;entryDy=0;" parent="1" source="fNfprqZ7PDnBtlyKB6TT-97" target="fNfprqZ7PDnBtlyKB6TT-148" edge="1">
                    <mxGeometry relative="1" as="geometry"/>
                </mxCell>
                <mxCell id="fNfprqZ7PDnBtlyKB6TT-97" value="ทอน &amp;gt;= 50" style="rhombus;whiteSpace=wrap;html=1;" parent="1" vertex="1">
                    <mxGeometry x="908" y="1275" width="80" height="60" as="geometry"/>
                </mxCell>
                <mxCell id="fNfprqZ7PDnBtlyKB6TT-104" style="edgeStyle=orthogonalEdgeStyle;rounded=0;orthogonalLoop=1;jettySize=auto;html=1;exitX=0.5;exitY=1;exitDx=0;exitDy=0;" parent="1" source="fNfprqZ7PDnBtlyKB6TT-98" edge="1">
                    <mxGeometry relative="1" as="geometry">
                        <mxPoint x="948" y="1415" as="targetPoint"/>
                    </mxGeometry>
                </mxCell>
                <mxCell id="fNfprqZ7PDnBtlyKB6TT-175" style="edgeStyle=orthogonalEdgeStyle;rounded=0;orthogonalLoop=1;jettySize=auto;html=1;entryX=0;entryY=0.5;entryDx=0;entryDy=0;" parent="1" source="fNfprqZ7PDnBtlyKB6TT-98" target="fNfprqZ7PDnBtlyKB6TT-149" edge="1">
                    <mxGeometry relative="1" as="geometry"/>
                </mxCell>
                <mxCell id="fNfprqZ7PDnBtlyKB6TT-98" value="ทอน &amp;gt;= 20" style="rhombus;whiteSpace=wrap;html=1;" parent="1" vertex="1">
                    <mxGeometry x="908" y="1345" width="80" height="60" as="geometry"/>
                </mxCell>
                <mxCell id="fNfprqZ7PDnBtlyKB6TT-105" style="edgeStyle=orthogonalEdgeStyle;rounded=0;orthogonalLoop=1;jettySize=auto;html=1;exitX=0.5;exitY=1;exitDx=0;exitDy=0;entryX=0.5;entryY=0;entryDx=0;entryDy=0;" parent="1" source="fNfprqZ7PDnBtlyKB6TT-99" target="fNfprqZ7PDnBtlyKB6TT-100" edge="1">
                    <mxGeometry relative="1" as="geometry"/>
                </mxCell>
                <mxCell id="fNfprqZ7PDnBtlyKB6TT-176" style="edgeStyle=orthogonalEdgeStyle;rounded=0;orthogonalLoop=1;jettySize=auto;html=1;entryX=0;entryY=0.5;entryDx=0;entryDy=0;" parent="1" source="fNfprqZ7PDnBtlyKB6TT-99" target="fNfprqZ7PDnBtlyKB6TT-150" edge="1">
                    <mxGeometry relative="1" as="geometry"/>
                </mxCell>
                <mxCell id="fNfprqZ7PDnBtlyKB6TT-99" value="ทอน &amp;gt;= 10" style="rhombus;whiteSpace=wrap;html=1;" parent="1" vertex="1">
                    <mxGeometry x="908.5" y="1418.5" width="80" height="60" as="geometry"/>
                </mxCell>
                <mxCell id="fNfprqZ7PDnBtlyKB6TT-151" style="edgeStyle=orthogonalEdgeStyle;rounded=0;orthogonalLoop=1;jettySize=auto;html=1;exitX=0.5;exitY=1;exitDx=0;exitDy=0;" parent="1" source="fNfprqZ7PDnBtlyKB6TT-100" edge="1">
                    <mxGeometry relative="1" as="geometry">
                        <mxPoint x="948.0000000000002" y="1579.9999999999998" as="targetPoint"/>
                    </mxGeometry>
                </mxCell>
                <mxCell id="fNfprqZ7PDnBtlyKB6TT-177" style="edgeStyle=orthogonalEdgeStyle;rounded=0;orthogonalLoop=1;jettySize=auto;html=1;entryX=0;entryY=0.5;entryDx=0;entryDy=0;" parent="1" source="fNfprqZ7PDnBtlyKB6TT-100" target="fNfprqZ7PDnBtlyKB6TT-153" edge="1">
                    <mxGeometry relative="1" as="geometry"/>
                </mxCell>
                <mxCell id="fNfprqZ7PDnBtlyKB6TT-100" value="ทอน &amp;gt;= 5" style="rhombus;whiteSpace=wrap;html=1;" parent="1" vertex="1">
                    <mxGeometry x="908" y="1495" width="80" height="60" as="geometry"/>
                </mxCell>
                <mxCell id="fNfprqZ7PDnBtlyKB6TT-113" value="N" style="text;html=1;align=center;verticalAlign=middle;whiteSpace=wrap;rounded=0;" parent="1" vertex="1">
                    <mxGeometry x="899" y="1185" width="60" height="30" as="geometry"/>
                </mxCell>
                <mxCell id="fNfprqZ7PDnBtlyKB6TT-114" value="N" style="text;html=1;align=center;verticalAlign=middle;whiteSpace=wrap;rounded=0;" parent="1" vertex="1">
                    <mxGeometry x="899" y="1255" width="60" height="30" as="geometry"/>
                </mxCell>
                <mxCell id="fNfprqZ7PDnBtlyKB6TT-115" value="N" style="text;html=1;align=center;verticalAlign=middle;whiteSpace=wrap;rounded=0;" parent="1" vertex="1">
                    <mxGeometry x="899" y="1325" width="60" height="30" as="geometry"/>
                </mxCell>
                <mxCell id="fNfprqZ7PDnBtlyKB6TT-116" value="N" style="text;html=1;align=center;verticalAlign=middle;whiteSpace=wrap;rounded=0;" parent="1" vertex="1">
                    <mxGeometry x="899" y="1395" width="60" height="30" as="geometry"/>
                </mxCell>
                <mxCell id="fNfprqZ7PDnBtlyKB6TT-117" value="N" style="text;html=1;align=center;verticalAlign=middle;whiteSpace=wrap;rounded=0;" parent="1" vertex="1">
                    <mxGeometry x="899" y="1479" width="60" height="30" as="geometry"/>
                </mxCell>
                <mxCell id="fNfprqZ7PDnBtlyKB6TT-119" value="BANK500= 0" style="rhombus;whiteSpace=wrap;html=1;fontSize=11;" parent="1" vertex="1">
                    <mxGeometry x="1020" y="1135" width="80" height="60" as="geometry"/>
                </mxCell>
                <mxCell id="fNfprqZ7PDnBtlyKB6TT-120" value="BANK500 -1" style="rounded=0;whiteSpace=wrap;html=1;" parent="1" vertex="1">
                    <mxGeometry x="1120" y="1147.5" width="80" height="37.5" as="geometry"/>
                </mxCell>
                <mxCell id="fNfprqZ7PDnBtlyKB6TT-138" style="edgeStyle=orthogonalEdgeStyle;rounded=0;orthogonalLoop=1;jettySize=auto;html=1;entryX=0;entryY=0.5;entryDx=0;entryDy=0;" parent="1" source="fNfprqZ7PDnBtlyKB6TT-121" edge="1">
                    <mxGeometry relative="1" as="geometry">
                        <mxPoint x="1329.9999999999998" y="1165" as="targetPoint"/>
                    </mxGeometry>
                </mxCell>
                <mxCell id="fNfprqZ7PDnBtlyKB6TT-121" value="ทอน - 500" style="rounded=0;whiteSpace=wrap;html=1;" parent="1" vertex="1">
                    <mxGeometry x="1230" y="1146.25" width="80" height="37.5" as="geometry"/>
                </mxCell>
                <mxCell id="fNfprqZ7PDnBtlyKB6TT-124" value="" style="endArrow=classic;html=1;rounded=0;entryX=0.981;entryY=0.637;entryDx=0;entryDy=0;entryPerimeter=0;" parent="1" edge="1">
                    <mxGeometry width="50" height="50" relative="1" as="geometry">
                        <mxPoint x="1060.14" y="1199.8" as="sourcePoint"/>
                        <mxPoint x="957.9999999999999" y="1199.91" as="targetPoint"/>
                    </mxGeometry>
                </mxCell>
                <mxCell id="fNfprqZ7PDnBtlyKB6TT-126" value="" style="endArrow=none;html=1;rounded=0;" parent="1" target="fNfprqZ7PDnBtlyKB6TT-119" edge="1">
                    <mxGeometry width="50" height="50" relative="1" as="geometry">
                        <mxPoint x="1060" y="1200" as="sourcePoint"/>
                        <mxPoint x="1080" y="1180" as="targetPoint"/>
                    </mxGeometry>
                </mxCell>
                <mxCell id="fNfprqZ7PDnBtlyKB6TT-133" style="edgeStyle=orthogonalEdgeStyle;rounded=0;orthogonalLoop=1;jettySize=auto;html=1;entryX=-0.032;entryY=0.541;entryDx=0;entryDy=0;entryPerimeter=0;" parent="1" source="fNfprqZ7PDnBtlyKB6TT-120" target="fNfprqZ7PDnBtlyKB6TT-121" edge="1">
                    <mxGeometry relative="1" as="geometry"/>
                </mxCell>
                <mxCell id="fNfprqZ7PDnBtlyKB6TT-135" style="edgeStyle=orthogonalEdgeStyle;rounded=0;orthogonalLoop=1;jettySize=auto;html=1;" parent="1" edge="1">
                    <mxGeometry relative="1" as="geometry">
                        <mxPoint x="1100" y="1164.86" as="sourcePoint"/>
                        <mxPoint x="1120" y="1165.11" as="targetPoint"/>
                    </mxGeometry>
                </mxCell>
                <mxCell id="fNfprqZ7PDnBtlyKB6TT-139" value="" style="endArrow=none;html=1;rounded=0;exitX=0.5;exitY=0;exitDx=0;exitDy=0;" parent="1" edge="1">
                    <mxGeometry width="50" height="50" relative="1" as="geometry">
                        <mxPoint x="1498.9999999999998" y="1146.25" as="sourcePoint"/>
                        <mxPoint x="1499" y="1120" as="targetPoint"/>
                    </mxGeometry>
                </mxCell>
                <mxCell id="fNfprqZ7PDnBtlyKB6TT-140" value="" style="endArrow=classic;html=1;rounded=0;" parent="1" edge="1">
                    <mxGeometry width="50" height="50" relative="1" as="geometry">
                        <mxPoint x="1500" y="1120" as="sourcePoint"/>
                        <mxPoint x="950" y="1120" as="targetPoint"/>
                    </mxGeometry>
                </mxCell>
                <mxCell id="fNfprqZ7PDnBtlyKB6TT-141" value="N" style="text;html=1;align=center;verticalAlign=middle;whiteSpace=wrap;rounded=0;" parent="1" vertex="1">
                    <mxGeometry x="1080" y="1139" width="60" height="30" as="geometry"/>
                </mxCell>
                <mxCell id="fNfprqZ7PDnBtlyKB6TT-283" style="edgeStyle=orthogonalEdgeStyle;rounded=0;orthogonalLoop=1;jettySize=auto;html=1;exitX=1;exitY=0.5;exitDx=0;exitDy=0;" parent="1" source="fNfprqZ7PDnBtlyKB6TT-144" edge="1">
                    <mxGeometry relative="1" as="geometry">
                        <mxPoint x="1450" y="1164.2941176470588" as="targetPoint"/>
                    </mxGeometry>
                </mxCell>
                <mxCell id="fNfprqZ7PDnBtlyKB6TT-144" value="ทอน BANK500" style="shape=parallelogram;perimeter=parallelogramPerimeter;whiteSpace=wrap;html=1;fixedSize=1;" parent="1" vertex="1">
                    <mxGeometry x="1330" y="1147.5" width="110" height="32.5" as="geometry"/>
                </mxCell>
                <mxCell id="fNfprqZ7PDnBtlyKB6TT-145" value="เครื่องจ่ายสินค้า" style="shape=parallelogram;perimeter=parallelogramPerimeter;whiteSpace=wrap;html=1;fixedSize=1;" parent="1" vertex="1">
                    <mxGeometry x="321.25" y="1964" width="136.25" height="40" as="geometry"/>
                </mxCell>
                <mxCell id="fNfprqZ7PDnBtlyKB6TT-146" value="Y" style="text;html=1;align=center;verticalAlign=middle;whiteSpace=wrap;rounded=0;" parent="1" vertex="1">
                    <mxGeometry x="970" y="1139" width="60" height="30" as="geometry"/>
                </mxCell>
                <mxCell id="fNfprqZ7PDnBtlyKB6TT-170" style="edgeStyle=orthogonalEdgeStyle;rounded=0;orthogonalLoop=1;jettySize=auto;html=1;exitX=1;exitY=0.5;exitDx=0;exitDy=0;entryX=0;entryY=0.5;entryDx=0;entryDy=0;" parent="1" source="fNfprqZ7PDnBtlyKB6TT-147" target="fNfprqZ7PDnBtlyKB6TT-154" edge="1">
                    <mxGeometry relative="1" as="geometry"/>
                </mxCell>
                <mxCell id="fNfprqZ7PDnBtlyKB6TT-147" value="BANK100= 0" style="rhombus;whiteSpace=wrap;html=1;fontSize=11;" parent="1" vertex="1">
                    <mxGeometry x="1020" y="1205" width="80" height="60" as="geometry"/>
                </mxCell>
                <mxCell id="fNfprqZ7PDnBtlyKB6TT-148" value="BANK50= 0" style="rhombus;whiteSpace=wrap;html=1;fontSize=11;" parent="1" vertex="1">
                    <mxGeometry x="1020" y="1275" width="80" height="60" as="geometry"/>
                </mxCell>
                <mxCell id="fNfprqZ7PDnBtlyKB6TT-149" value="BANK20= 0" style="rhombus;whiteSpace=wrap;html=1;fontSize=11;" parent="1" vertex="1">
                    <mxGeometry x="1020" y="1345" width="80" height="60" as="geometry"/>
                </mxCell>
                <mxCell id="fNfprqZ7PDnBtlyKB6TT-188" style="edgeStyle=orthogonalEdgeStyle;rounded=0;orthogonalLoop=1;jettySize=auto;html=1;exitX=1;exitY=0.5;exitDx=0;exitDy=0;entryX=0;entryY=0.5;entryDx=0;entryDy=0;" parent="1" source="fNfprqZ7PDnBtlyKB6TT-150" target="fNfprqZ7PDnBtlyKB6TT-157" edge="1">
                    <mxGeometry relative="1" as="geometry"/>
                </mxCell>
                <mxCell id="fNfprqZ7PDnBtlyKB6TT-150" value="BANK10= 0" style="rhombus;whiteSpace=wrap;html=1;fontSize=11;" parent="1" vertex="1">
                    <mxGeometry x="1020" y="1418.5" width="80" height="60" as="geometry"/>
                </mxCell>
                <mxCell id="fNfprqZ7PDnBtlyKB6TT-153" value="BANK5= 0" style="rhombus;whiteSpace=wrap;html=1;fontSize=11;" parent="1" vertex="1">
                    <mxGeometry x="1020" y="1495" width="80" height="60" as="geometry"/>
                </mxCell>
                <mxCell id="fNfprqZ7PDnBtlyKB6TT-196" style="edgeStyle=orthogonalEdgeStyle;rounded=0;orthogonalLoop=1;jettySize=auto;html=1;exitX=1;exitY=0.5;exitDx=0;exitDy=0;entryX=-0.038;entryY=0.54;entryDx=0;entryDy=0;entryPerimeter=0;" parent="1" source="fNfprqZ7PDnBtlyKB6TT-154" target="fNfprqZ7PDnBtlyKB6TT-159" edge="1">
                    <mxGeometry relative="1" as="geometry">
                        <mxPoint x="1219.9999999999998" y="1235.1666666666667" as="targetPoint"/>
                    </mxGeometry>
                </mxCell>
                <mxCell id="fNfprqZ7PDnBtlyKB6TT-154" value="BANK100 -1" style="rounded=0;whiteSpace=wrap;html=1;" parent="1" vertex="1">
                    <mxGeometry x="1120" y="1216.25" width="80" height="37.5" as="geometry"/>
                </mxCell>
                <mxCell id="fNfprqZ7PDnBtlyKB6TT-197" style="edgeStyle=orthogonalEdgeStyle;rounded=0;orthogonalLoop=1;jettySize=auto;html=1;exitX=1;exitY=0.5;exitDx=0;exitDy=0;entryX=0;entryY=0.5;entryDx=0;entryDy=0;" parent="1" source="fNfprqZ7PDnBtlyKB6TT-155" target="fNfprqZ7PDnBtlyKB6TT-160" edge="1">
                    <mxGeometry relative="1" as="geometry"/>
                </mxCell>
                <mxCell id="fNfprqZ7PDnBtlyKB6TT-155" value="BANK50 -1" style="rounded=0;whiteSpace=wrap;html=1;" parent="1" vertex="1">
                    <mxGeometry x="1120" y="1285" width="80" height="37.5" as="geometry"/>
                </mxCell>
                <mxCell id="fNfprqZ7PDnBtlyKB6TT-156" value="BANK20 -1" style="rounded=0;whiteSpace=wrap;html=1;" parent="1" vertex="1">
                    <mxGeometry x="1120" y="1357.5" width="80" height="37.5" as="geometry"/>
                </mxCell>
                <mxCell id="fNfprqZ7PDnBtlyKB6TT-201" style="edgeStyle=orthogonalEdgeStyle;rounded=0;orthogonalLoop=1;jettySize=auto;html=1;exitX=1;exitY=0.5;exitDx=0;exitDy=0;entryX=0;entryY=0.5;entryDx=0;entryDy=0;" parent="1" source="fNfprqZ7PDnBtlyKB6TT-157" target="fNfprqZ7PDnBtlyKB6TT-162" edge="1">
                    <mxGeometry relative="1" as="geometry"/>
                </mxCell>
                <mxCell id="fNfprqZ7PDnBtlyKB6TT-157" value="BANK10 -1" style="rounded=0;whiteSpace=wrap;html=1;" parent="1" vertex="1">
                    <mxGeometry x="1120" y="1430" width="80" height="37.5" as="geometry"/>
                </mxCell>
                <mxCell id="fNfprqZ7PDnBtlyKB6TT-202" style="edgeStyle=orthogonalEdgeStyle;rounded=0;orthogonalLoop=1;jettySize=auto;html=1;exitX=1;exitY=0.5;exitDx=0;exitDy=0;entryX=0;entryY=0.5;entryDx=0;entryDy=0;" parent="1" source="fNfprqZ7PDnBtlyKB6TT-158" target="fNfprqZ7PDnBtlyKB6TT-163" edge="1">
                    <mxGeometry relative="1" as="geometry"/>
                </mxCell>
                <mxCell id="fNfprqZ7PDnBtlyKB6TT-158" value="BANK5 -1" style="rounded=0;whiteSpace=wrap;html=1;" parent="1" vertex="1">
                    <mxGeometry x="1120" y="1502.5" width="80" height="37.5" as="geometry"/>
                </mxCell>
                <mxCell id="fNfprqZ7PDnBtlyKB6TT-217" style="edgeStyle=orthogonalEdgeStyle;rounded=0;orthogonalLoop=1;jettySize=auto;html=1;exitX=1;exitY=0.5;exitDx=0;exitDy=0;" parent="1" source="fNfprqZ7PDnBtlyKB6TT-159" edge="1">
                    <mxGeometry relative="1" as="geometry">
                        <mxPoint x="1330" y="1233.867924528302" as="targetPoint"/>
                    </mxGeometry>
                </mxCell>
                <mxCell id="fNfprqZ7PDnBtlyKB6TT-159" value="ทอน - 100" style="rounded=0;whiteSpace=wrap;html=1;" parent="1" vertex="1">
                    <mxGeometry x="1230" y="1215" width="80" height="37.5" as="geometry"/>
                </mxCell>
                <mxCell id="fNfprqZ7PDnBtlyKB6TT-216" style="edgeStyle=orthogonalEdgeStyle;rounded=0;orthogonalLoop=1;jettySize=auto;html=1;exitX=1;exitY=0.5;exitDx=0;exitDy=0;" parent="1" source="fNfprqZ7PDnBtlyKB6TT-160" edge="1">
                    <mxGeometry relative="1" as="geometry">
                        <mxPoint x="1330" y="1304" as="targetPoint"/>
                    </mxGeometry>
                </mxCell>
                <mxCell id="fNfprqZ7PDnBtlyKB6TT-160" value="ทอน - 50" style="rounded=0;whiteSpace=wrap;html=1;" parent="1" vertex="1">
                    <mxGeometry x="1230" y="1285" width="80" height="37.5" as="geometry"/>
                </mxCell>
                <mxCell id="fNfprqZ7PDnBtlyKB6TT-220" style="edgeStyle=orthogonalEdgeStyle;rounded=0;orthogonalLoop=1;jettySize=auto;html=1;exitX=1;exitY=0.5;exitDx=0;exitDy=0;" parent="1" source="fNfprqZ7PDnBtlyKB6TT-161" edge="1">
                    <mxGeometry relative="1" as="geometry">
                        <mxPoint x="1330" y="1373.867924528302" as="targetPoint"/>
                    </mxGeometry>
                </mxCell>
                <mxCell id="fNfprqZ7PDnBtlyKB6TT-161" value="ทอน - 20" style="rounded=0;whiteSpace=wrap;html=1;" parent="1" vertex="1">
                    <mxGeometry x="1230" y="1355" width="80" height="37.5" as="geometry"/>
                </mxCell>
                <mxCell id="fNfprqZ7PDnBtlyKB6TT-222" style="edgeStyle=orthogonalEdgeStyle;rounded=0;orthogonalLoop=1;jettySize=auto;html=1;exitX=1;exitY=0.5;exitDx=0;exitDy=0;" parent="1" source="fNfprqZ7PDnBtlyKB6TT-162" edge="1">
                    <mxGeometry relative="1" as="geometry">
                        <mxPoint x="1330" y="1448.5849056603774" as="targetPoint"/>
                    </mxGeometry>
                </mxCell>
                <mxCell id="fNfprqZ7PDnBtlyKB6TT-162" value="ทอน - 10" style="rounded=0;whiteSpace=wrap;html=1;" parent="1" vertex="1">
                    <mxGeometry x="1230" y="1429.75" width="80" height="37.5" as="geometry"/>
                </mxCell>
                <mxCell id="fNfprqZ7PDnBtlyKB6TT-223" style="edgeStyle=orthogonalEdgeStyle;rounded=0;orthogonalLoop=1;jettySize=auto;html=1;exitX=1;exitY=0.5;exitDx=0;exitDy=0;" parent="1" source="fNfprqZ7PDnBtlyKB6TT-163" edge="1">
                    <mxGeometry relative="1" as="geometry">
                        <mxPoint x="1330" y="1521.4150943396228" as="targetPoint"/>
                    </mxGeometry>
                </mxCell>
                <mxCell id="fNfprqZ7PDnBtlyKB6TT-163" value="ทอน - 5" style="rounded=0;whiteSpace=wrap;html=1;" parent="1" vertex="1">
                    <mxGeometry x="1230" y="1502.5" width="80" height="37.5" as="geometry"/>
                </mxCell>
                <mxCell id="fNfprqZ7PDnBtlyKB6TT-284" style="edgeStyle=orthogonalEdgeStyle;rounded=0;orthogonalLoop=1;jettySize=auto;html=1;exitX=1;exitY=0.5;exitDx=0;exitDy=0;" parent="1" source="fNfprqZ7PDnBtlyKB6TT-164" edge="1">
                    <mxGeometry relative="1" as="geometry">
                        <mxPoint x="1450" y="1232.5294117647059" as="targetPoint"/>
                    </mxGeometry>
                </mxCell>
                <mxCell id="fNfprqZ7PDnBtlyKB6TT-164" value="ทอน BANK500" style="shape=parallelogram;perimeter=parallelogramPerimeter;whiteSpace=wrap;html=1;fixedSize=1;" parent="1" vertex="1">
                    <mxGeometry x="1330" y="1216.25" width="110" height="32.5" as="geometry"/>
                </mxCell>
                <mxCell id="fNfprqZ7PDnBtlyKB6TT-286" style="edgeStyle=orthogonalEdgeStyle;rounded=0;orthogonalLoop=1;jettySize=auto;html=1;exitX=1;exitY=0.5;exitDx=0;exitDy=0;" parent="1" source="fNfprqZ7PDnBtlyKB6TT-165" edge="1">
                    <mxGeometry relative="1" as="geometry">
                        <mxPoint x="1450" y="1301" as="targetPoint"/>
                    </mxGeometry>
                </mxCell>
                <mxCell id="fNfprqZ7PDnBtlyKB6TT-165" value="ทอน BANK500" style="shape=parallelogram;perimeter=parallelogramPerimeter;whiteSpace=wrap;html=1;fixedSize=1;" parent="1" vertex="1">
                    <mxGeometry x="1330" y="1285" width="110" height="32.5" as="geometry"/>
                </mxCell>
                <mxCell id="fNfprqZ7PDnBtlyKB6TT-287" style="edgeStyle=orthogonalEdgeStyle;rounded=0;orthogonalLoop=1;jettySize=auto;html=1;exitX=1;exitY=0.5;exitDx=0;exitDy=0;" parent="1" source="fNfprqZ7PDnBtlyKB6TT-166" edge="1">
                    <mxGeometry relative="1" as="geometry">
                        <mxPoint x="1450" y="1371" as="targetPoint"/>
                    </mxGeometry>
                </mxCell>
                <mxCell id="fNfprqZ7PDnBtlyKB6TT-166" value="ทอน BANK500" style="shape=parallelogram;perimeter=parallelogramPerimeter;whiteSpace=wrap;html=1;fixedSize=1;" parent="1" vertex="1">
                    <mxGeometry x="1330" y="1355" width="110" height="32.5" as="geometry"/>
                </mxCell>
                <mxCell id="fNfprqZ7PDnBtlyKB6TT-288" style="edgeStyle=orthogonalEdgeStyle;rounded=0;orthogonalLoop=1;jettySize=auto;html=1;exitX=1;exitY=0.5;exitDx=0;exitDy=0;" parent="1" source="fNfprqZ7PDnBtlyKB6TT-167" edge="1">
                    <mxGeometry relative="1" as="geometry">
                        <mxPoint x="1450" y="1449" as="targetPoint"/>
                    </mxGeometry>
                </mxCell>
                <mxCell id="fNfprqZ7PDnBtlyKB6TT-167" value="ทอน BANK500" style="shape=parallelogram;perimeter=parallelogramPerimeter;whiteSpace=wrap;html=1;fixedSize=1;" parent="1" vertex="1">
                    <mxGeometry x="1330" y="1432.25" width="110" height="32.5" as="geometry"/>
                </mxCell>
                <mxCell id="fNfprqZ7PDnBtlyKB6TT-289" style="edgeStyle=orthogonalEdgeStyle;rounded=0;orthogonalLoop=1;jettySize=auto;html=1;exitX=1;exitY=0.5;exitDx=0;exitDy=0;" parent="1" source="fNfprqZ7PDnBtlyKB6TT-168" edge="1">
                    <mxGeometry relative="1" as="geometry">
                        <mxPoint x="1450" y="1519" as="targetPoint"/>
                    </mxGeometry>
                </mxCell>
                <mxCell id="fNfprqZ7PDnBtlyKB6TT-168" value="ทอน BANK500" style="shape=parallelogram;perimeter=parallelogramPerimeter;whiteSpace=wrap;html=1;fixedSize=1;" parent="1" vertex="1">
                    <mxGeometry x="1330" y="1502.5" width="110" height="32.5" as="geometry"/>
                </mxCell>
                <mxCell id="fNfprqZ7PDnBtlyKB6TT-186" style="edgeStyle=orthogonalEdgeStyle;rounded=0;orthogonalLoop=1;jettySize=auto;html=1;exitX=1;exitY=0.5;exitDx=0;exitDy=0;entryX=-0.031;entryY=0.62;entryDx=0;entryDy=0;entryPerimeter=0;" parent="1" source="fNfprqZ7PDnBtlyKB6TT-153" target="fNfprqZ7PDnBtlyKB6TT-158" edge="1">
                    <mxGeometry relative="1" as="geometry"/>
                </mxCell>
                <mxCell id="fNfprqZ7PDnBtlyKB6TT-191" style="edgeStyle=orthogonalEdgeStyle;rounded=0;orthogonalLoop=1;jettySize=auto;html=1;exitX=1;exitY=0.5;exitDx=0;exitDy=0;entryX=-0.054;entryY=0.488;entryDx=0;entryDy=0;entryPerimeter=0;" parent="1" source="fNfprqZ7PDnBtlyKB6TT-149" target="fNfprqZ7PDnBtlyKB6TT-156" edge="1">
                    <mxGeometry relative="1" as="geometry"/>
                </mxCell>
                <mxCell id="fNfprqZ7PDnBtlyKB6TT-195" style="edgeStyle=orthogonalEdgeStyle;rounded=0;orthogonalLoop=1;jettySize=auto;html=1;exitX=1;exitY=0.5;exitDx=0;exitDy=0;entryX=-0.04;entryY=0.543;entryDx=0;entryDy=0;entryPerimeter=0;" parent="1" source="fNfprqZ7PDnBtlyKB6TT-148" target="fNfprqZ7PDnBtlyKB6TT-155" edge="1">
                    <mxGeometry relative="1" as="geometry"/>
                </mxCell>
                <mxCell id="fNfprqZ7PDnBtlyKB6TT-200" style="edgeStyle=orthogonalEdgeStyle;rounded=0;orthogonalLoop=1;jettySize=auto;html=1;exitX=1;exitY=0.5;exitDx=0;exitDy=0;entryX=-0.054;entryY=0.573;entryDx=0;entryDy=0;entryPerimeter=0;" parent="1" source="fNfprqZ7PDnBtlyKB6TT-156" target="fNfprqZ7PDnBtlyKB6TT-161" edge="1">
                    <mxGeometry relative="1" as="geometry"/>
                </mxCell>
                <mxCell id="fNfprqZ7PDnBtlyKB6TT-225" value="" style="endArrow=none;html=1;rounded=0;entryX=0.5;entryY=1;entryDx=0;entryDy=0;" parent="1" target="fNfprqZ7PDnBtlyKB6TT-147" edge="1">
                    <mxGeometry width="50" height="50" relative="1" as="geometry">
                        <mxPoint x="1060" y="1270" as="sourcePoint"/>
                        <mxPoint x="1070" y="1260" as="targetPoint"/>
                    </mxGeometry>
                </mxCell>
                <mxCell id="fNfprqZ7PDnBtlyKB6TT-226" value="" style="endArrow=classic;html=1;rounded=0;entryX=0.981;entryY=0.637;entryDx=0;entryDy=0;entryPerimeter=0;" parent="1" edge="1">
                    <mxGeometry width="50" height="50" relative="1" as="geometry">
                        <mxPoint x="1060.14" y="1269.81" as="sourcePoint"/>
                        <mxPoint x="957.9999999999999" y="1269.92" as="targetPoint"/>
                    </mxGeometry>
                </mxCell>
                <mxCell id="fNfprqZ7PDnBtlyKB6TT-227" value="" style="endArrow=none;html=1;rounded=0;entryX=0.5;entryY=1;entryDx=0;entryDy=0;exitX=0.499;exitY=-0.051;exitDx=0;exitDy=0;exitPerimeter=0;" parent="1" source="fNfprqZ7PDnBtlyKB6TT-149" target="fNfprqZ7PDnBtlyKB6TT-148" edge="1">
                    <mxGeometry width="50" height="50" relative="1" as="geometry">
                        <mxPoint x="1050" y="1380" as="sourcePoint"/>
                        <mxPoint x="1100" y="1330" as="targetPoint"/>
                    </mxGeometry>
                </mxCell>
                <mxCell id="fNfprqZ7PDnBtlyKB6TT-228" value="" style="endArrow=none;html=1;rounded=0;entryX=0.5;entryY=1;entryDx=0;entryDy=0;" parent="1" target="fNfprqZ7PDnBtlyKB6TT-149" edge="1">
                    <mxGeometry width="50" height="50" relative="1" as="geometry">
                        <mxPoint x="1060" y="1410" as="sourcePoint"/>
                        <mxPoint x="1040" y="1340" as="targetPoint"/>
                    </mxGeometry>
                </mxCell>
                <mxCell id="fNfprqZ7PDnBtlyKB6TT-230" value="" style="endArrow=none;html=1;rounded=0;entryX=0.5;entryY=1;entryDx=0;entryDy=0;" parent="1" target="fNfprqZ7PDnBtlyKB6TT-150" edge="1">
                    <mxGeometry width="50" height="50" relative="1" as="geometry">
                        <mxPoint x="1060" y="1490" as="sourcePoint"/>
                        <mxPoint x="1040" y="1430" as="targetPoint"/>
                    </mxGeometry>
                </mxCell>
                <mxCell id="fNfprqZ7PDnBtlyKB6TT-232" value="" style="endArrow=none;html=1;rounded=0;entryX=0.5;entryY=1;entryDx=0;entryDy=0;" parent="1" target="fNfprqZ7PDnBtlyKB6TT-153" edge="1">
                    <mxGeometry width="50" height="50" relative="1" as="geometry">
                        <mxPoint x="1060" y="1570" as="sourcePoint"/>
                        <mxPoint x="1040" y="1530" as="targetPoint"/>
                    </mxGeometry>
                </mxCell>
                <mxCell id="fNfprqZ7PDnBtlyKB6TT-233" value="" style="endArrow=classic;html=1;rounded=0;entryX=0.981;entryY=0.637;entryDx=0;entryDy=0;entryPerimeter=0;" parent="1" edge="1">
                    <mxGeometry width="50" height="50" relative="1" as="geometry">
                        <mxPoint x="1060.14" y="1341.72" as="sourcePoint"/>
                        <mxPoint x="957.9999999999999" y="1341.8300000000002" as="targetPoint"/>
                    </mxGeometry>
                </mxCell>
                <mxCell id="fNfprqZ7PDnBtlyKB6TT-234" value="" style="endArrow=classic;html=1;rounded=0;entryX=0.981;entryY=0.637;entryDx=0;entryDy=0;entryPerimeter=0;" parent="1" edge="1">
                    <mxGeometry width="50" height="50" relative="1" as="geometry">
                        <mxPoint x="1060.14" y="1409.44" as="sourcePoint"/>
                        <mxPoint x="957.9999999999999" y="1409.5500000000002" as="targetPoint"/>
                    </mxGeometry>
                </mxCell>
                <mxCell id="fNfprqZ7PDnBtlyKB6TT-235" value="" style="endArrow=classic;html=1;rounded=0;entryX=0.981;entryY=0.637;entryDx=0;entryDy=0;entryPerimeter=0;" parent="1" edge="1">
                    <mxGeometry width="50" height="50" relative="1" as="geometry">
                        <mxPoint x="1060.14" y="1490" as="sourcePoint"/>
                        <mxPoint x="957.9999999999999" y="1490.1100000000001" as="targetPoint"/>
                    </mxGeometry>
                </mxCell>
                <mxCell id="fNfprqZ7PDnBtlyKB6TT-236" value="" style="endArrow=classic;html=1;rounded=0;entryX=0.981;entryY=0.637;entryDx=0;entryDy=0;entryPerimeter=0;" parent="1" edge="1">
                    <mxGeometry width="50" height="50" relative="1" as="geometry">
                        <mxPoint x="1060.14" y="1570" as="sourcePoint"/>
                        <mxPoint x="957.9999999999999" y="1570.1100000000001" as="targetPoint"/>
                    </mxGeometry>
                </mxCell>
                <mxCell id="fNfprqZ7PDnBtlyKB6TT-237" value="N" style="text;html=1;align=center;verticalAlign=middle;whiteSpace=wrap;rounded=0;" parent="1" vertex="1">
                    <mxGeometry x="1080" y="1207.5" width="60" height="30" as="geometry"/>
                </mxCell>
                <mxCell id="fNfprqZ7PDnBtlyKB6TT-238" value="N" style="text;html=1;align=center;verticalAlign=middle;whiteSpace=wrap;rounded=0;" parent="1" vertex="1">
                    <mxGeometry x="1080" y="1275" width="60" height="30" as="geometry"/>
                </mxCell>
                <mxCell id="fNfprqZ7PDnBtlyKB6TT-239" value="N" style="text;html=1;align=center;verticalAlign=middle;whiteSpace=wrap;rounded=0;" parent="1" vertex="1">
                    <mxGeometry x="1080" y="1345" width="60" height="30" as="geometry"/>
                </mxCell>
                <mxCell id="fNfprqZ7PDnBtlyKB6TT-240" value="N" style="text;html=1;align=center;verticalAlign=middle;whiteSpace=wrap;rounded=0;" parent="1" vertex="1">
                    <mxGeometry x="1080" y="1420" width="60" height="30" as="geometry"/>
                </mxCell>
                <mxCell id="fNfprqZ7PDnBtlyKB6TT-241" value="N" style="text;html=1;align=center;verticalAlign=middle;whiteSpace=wrap;rounded=0;" parent="1" vertex="1">
                    <mxGeometry x="1080" y="1490" width="60" height="30" as="geometry"/>
                </mxCell>
                <mxCell id="fNfprqZ7PDnBtlyKB6TT-247" value="Y" style="text;html=1;align=center;verticalAlign=middle;whiteSpace=wrap;rounded=0;" parent="1" vertex="1">
                    <mxGeometry x="1009" y="1177.5" width="60" height="30" as="geometry"/>
                </mxCell>
                <mxCell id="fNfprqZ7PDnBtlyKB6TT-248" value="Y" style="text;html=1;align=center;verticalAlign=middle;whiteSpace=wrap;rounded=0;" parent="1" vertex="1">
                    <mxGeometry x="970" y="1210" width="60" height="30" as="geometry"/>
                </mxCell>
                <mxCell id="fNfprqZ7PDnBtlyKB6TT-249" value="Y" style="text;html=1;align=center;verticalAlign=middle;whiteSpace=wrap;rounded=0;" parent="1" vertex="1">
                    <mxGeometry x="1009" y="1245" width="60" height="30" as="geometry"/>
                </mxCell>
                <mxCell id="fNfprqZ7PDnBtlyKB6TT-250" value="Y" style="text;html=1;align=center;verticalAlign=middle;whiteSpace=wrap;rounded=0;" parent="1" vertex="1">
                    <mxGeometry x="970" y="1280" width="60" height="30" as="geometry"/>
                </mxCell>
                <mxCell id="fNfprqZ7PDnBtlyKB6TT-251" value="Y" style="text;html=1;align=center;verticalAlign=middle;whiteSpace=wrap;rounded=0;" parent="1" vertex="1">
                    <mxGeometry x="1009" y="1317.5" width="60" height="30" as="geometry"/>
                </mxCell>
                <mxCell id="fNfprqZ7PDnBtlyKB6TT-252" value="Y" style="text;html=1;align=center;verticalAlign=middle;whiteSpace=wrap;rounded=0;" parent="1" vertex="1">
                    <mxGeometry x="970" y="1350" width="60" height="30" as="geometry"/>
                </mxCell>
                <mxCell id="fNfprqZ7PDnBtlyKB6TT-253" value="Y" style="text;html=1;align=center;verticalAlign=middle;whiteSpace=wrap;rounded=0;" parent="1" vertex="1">
                    <mxGeometry x="1009" y="1387.5" width="60" height="30" as="geometry"/>
                </mxCell>
                <mxCell id="fNfprqZ7PDnBtlyKB6TT-254" value="Y" style="text;html=1;align=center;verticalAlign=middle;whiteSpace=wrap;rounded=0;" parent="1" vertex="1">
                    <mxGeometry x="970" y="1425" width="60" height="30" as="geometry"/>
                </mxCell>
                <mxCell id="fNfprqZ7PDnBtlyKB6TT-255" value="Y" style="text;html=1;align=center;verticalAlign=middle;whiteSpace=wrap;rounded=0;" parent="1" vertex="1">
                    <mxGeometry x="1020" y="1465" width="60" height="30" as="geometry"/>
                </mxCell>
                <mxCell id="fNfprqZ7PDnBtlyKB6TT-256" value="Y" style="text;html=1;align=center;verticalAlign=middle;whiteSpace=wrap;rounded=0;" parent="1" vertex="1">
                    <mxGeometry x="970" y="1495" width="60" height="30" as="geometry"/>
                </mxCell>
                <mxCell id="fNfprqZ7PDnBtlyKB6TT-257" value="Y" style="text;html=1;align=center;verticalAlign=middle;whiteSpace=wrap;rounded=0;" parent="1" vertex="1">
                    <mxGeometry x="1020" y="1545" width="60" height="30" as="geometry"/>
                </mxCell>
                <mxCell id="fNfprqZ7PDnBtlyKB6TT-259" value="" style="endArrow=none;html=1;rounded=0;entryX=0.5;entryY=0;entryDx=0;entryDy=0;" parent="1" edge="1">
                    <mxGeometry width="50" height="50" relative="1" as="geometry">
                        <mxPoint x="1490" y="1200" as="sourcePoint"/>
                        <mxPoint x="1490" y="1216.25" as="targetPoint"/>
                        <Array as="points"/>
                    </mxGeometry>
                </mxCell>
                <mxCell id="fNfprqZ7PDnBtlyKB6TT-260" value="" style="endArrow=none;html=1;rounded=0;entryX=0.5;entryY=0;entryDx=0;entryDy=0;" parent="1" edge="1">
                    <mxGeometry width="50" height="50" relative="1" as="geometry">
                        <mxPoint x="1489" y="1270" as="sourcePoint"/>
                        <mxPoint x="1489" y="1285" as="targetPoint"/>
                    </mxGeometry>
                </mxCell>
                <mxCell id="fNfprqZ7PDnBtlyKB6TT-261" value="" style="endArrow=none;html=1;rounded=0;entryX=0.547;entryY=0.052;entryDx=0;entryDy=0;entryPerimeter=0;" parent="1" edge="1">
                    <mxGeometry width="50" height="50" relative="1" as="geometry">
                        <mxPoint x="1489" y="1340" as="sourcePoint"/>
                        <mxPoint x="1489.17" y="1354.6899999999998" as="targetPoint"/>
                    </mxGeometry>
                </mxCell>
                <mxCell id="fNfprqZ7PDnBtlyKB6TT-262" value="" style="endArrow=none;html=1;rounded=0;entryX=0.5;entryY=0;entryDx=0;entryDy=0;" parent="1" edge="1">
                    <mxGeometry width="50" height="50" relative="1" as="geometry">
                        <mxPoint x="1480" y="1409" as="sourcePoint"/>
                        <mxPoint x="1480" y="1431" as="targetPoint"/>
                    </mxGeometry>
                </mxCell>
                <mxCell id="fNfprqZ7PDnBtlyKB6TT-263" value="" style="endArrow=none;html=1;rounded=0;entryX=0.5;entryY=0;entryDx=0;entryDy=0;" parent="1" edge="1">
                    <mxGeometry width="50" height="50" relative="1" as="geometry">
                        <mxPoint x="1480" y="1490" as="sourcePoint"/>
                        <mxPoint x="1480" y="1503" as="targetPoint"/>
                    </mxGeometry>
                </mxCell>
                <mxCell id="fNfprqZ7PDnBtlyKB6TT-264" value="" style="endArrow=classic;html=1;rounded=0;" parent="1" edge="1">
                    <mxGeometry width="50" height="50" relative="1" as="geometry">
                        <mxPoint x="1490" y="1200" as="sourcePoint"/>
                        <mxPoint x="1060" y="1200" as="targetPoint"/>
                    </mxGeometry>
                </mxCell>
                <mxCell id="fNfprqZ7PDnBtlyKB6TT-266" value="" style="endArrow=classic;html=1;rounded=0;" parent="1" edge="1">
                    <mxGeometry width="50" height="50" relative="1" as="geometry">
                        <mxPoint x="1490" y="1270" as="sourcePoint"/>
                        <mxPoint x="1060" y="1270" as="targetPoint"/>
                    </mxGeometry>
                </mxCell>
                <mxCell id="fNfprqZ7PDnBtlyKB6TT-267" value="" style="endArrow=classic;html=1;rounded=0;" parent="1" edge="1">
                    <mxGeometry width="50" height="50" relative="1" as="geometry">
                        <mxPoint x="1490" y="1340" as="sourcePoint"/>
                        <mxPoint x="1060" y="1340" as="targetPoint"/>
                    </mxGeometry>
                </mxCell>
                <mxCell id="fNfprqZ7PDnBtlyKB6TT-268" value="" style="endArrow=classic;html=1;rounded=0;" parent="1" edge="1">
                    <mxGeometry width="50" height="50" relative="1" as="geometry">
                        <mxPoint x="1480" y="1410" as="sourcePoint"/>
                        <mxPoint x="1060" y="1410" as="targetPoint"/>
                    </mxGeometry>
                </mxCell>
                <mxCell id="fNfprqZ7PDnBtlyKB6TT-269" value="" style="endArrow=classic;html=1;rounded=0;" parent="1" edge="1">
                    <mxGeometry width="50" height="50" relative="1" as="geometry">
                        <mxPoint x="1480" y="1490" as="sourcePoint"/>
                        <mxPoint x="1060" y="1490.0000000000002" as="targetPoint"/>
                    </mxGeometry>
                </mxCell>
                <mxCell id="fNfprqZ7PDnBtlyKB6TT-271" value="End ทอนเงิน" style="ellipse;whiteSpace=wrap;html=1;fontStyle=1" parent="1" vertex="1">
                    <mxGeometry x="889" y="1585" width="119" height="55" as="geometry"/>
                </mxCell>
                <mxCell id="fNfprqZ7PDnBtlyKB6TT-272" value="แสดง &quot;เงินในตู้ไม่เพียงพอ&quot;&amp;nbsp;" style="shape=parallelogram;perimeter=parallelogramPerimeter;whiteSpace=wrap;html=1;fixedSize=1;" parent="1" vertex="1">
                    <mxGeometry x="487.5" y="1679" width="173" height="40" as="geometry"/>
                </mxCell>
                <mxCell id="fNfprqZ7PDnBtlyKB6TT-273" value="คืนเงินของ เงินเข้า" style="shape=parallelogram;perimeter=parallelogramPerimeter;whiteSpace=wrap;html=1;fixedSize=1;" parent="1" vertex="1">
                    <mxGeometry x="487.5" y="1589" width="173" height="40" as="geometry"/>
                </mxCell>
                <mxCell id="fNfprqZ7PDnBtlyKB6TT-275" value="แสดง&amp;nbsp;&lt;br&gt;&quot;เงินทอน&quot;&lt;br&gt;&lt;div&gt;&quot;แบงค์500 = B500&quot;&lt;br&gt;&quot;แบงค์100 = B100&quot;&lt;br&gt;&quot;แบงค์50 = B50&quot;&lt;br&gt;&quot;แบงค์20 = B20&quot;&lt;br&gt;&quot;เหรียญ10 = B10&quot;&lt;br&gt;&quot;เหรียญ5 = B5&quot;&lt;br&gt;&lt;/div&gt;" style="shape=parallelogram;perimeter=parallelogramPerimeter;whiteSpace=wrap;html=1;fixedSize=1;" parent="1" vertex="1">
                    <mxGeometry x="301" y="1824" width="173" height="120" as="geometry"/>
                </mxCell>
                <mxCell id="fNfprqZ7PDnBtlyKB6TT-277" value="B500 + 1" style="rounded=0;whiteSpace=wrap;html=1;" parent="1" vertex="1">
                    <mxGeometry x="1460" y="1146.25" width="80" height="37.5" as="geometry"/>
                </mxCell>
                <mxCell id="fNfprqZ7PDnBtlyKB6TT-278" value="B100 +1" style="rounded=0;whiteSpace=wrap;html=1;" parent="1" vertex="1">
                    <mxGeometry x="1460" y="1212.5" width="80" height="37.5" as="geometry"/>
                </mxCell>
                <mxCell id="fNfprqZ7PDnBtlyKB6TT-279" value="B50 +1" style="rounded=0;whiteSpace=wrap;html=1;" parent="1" vertex="1">
                    <mxGeometry x="1460" y="1285" width="80" height="37.5" as="geometry"/>
                </mxCell>
                <mxCell id="fNfprqZ7PDnBtlyKB6TT-280" value="B20 +1" style="rounded=0;whiteSpace=wrap;html=1;" parent="1" vertex="1">
                    <mxGeometry x="1460" y="1352.5" width="80" height="37.5" as="geometry"/>
                </mxCell>
                <mxCell id="fNfprqZ7PDnBtlyKB6TT-281" value="B10 +1" style="rounded=0;whiteSpace=wrap;html=1;" parent="1" vertex="1">
                    <mxGeometry x="1460" y="1429.75" width="80" height="37.5" as="geometry"/>
                </mxCell>
                <mxCell id="fNfprqZ7PDnBtlyKB6TT-282" value="B5 + 1" style="rounded=0;whiteSpace=wrap;html=1;" parent="1" vertex="1">
                    <mxGeometry x="1450" y="1504.25" width="80" height="37.5" as="geometry"/>
                </mxCell>
                <mxCell id="fNfprqZ7PDnBtlyKB6TT-297" style="edgeStyle=orthogonalEdgeStyle;rounded=0;orthogonalLoop=1;jettySize=auto;html=1;exitX=0.5;exitY=1;exitDx=0;exitDy=0;entryX=0.5;entryY=0;entryDx=0;entryDy=0;" parent="1" source="fNfprqZ7PDnBtlyKB6TT-290" target="fNfprqZ7PDnBtlyKB6TT-291" edge="1">
                    <mxGeometry relative="1" as="geometry"/>
                </mxCell>
                <mxCell id="fNfprqZ7PDnBtlyKB6TT-290" value="&lt;span style=&quot;font-size: 14px;&quot;&gt;B500 = 0&lt;/span&gt;" style="rounded=0;whiteSpace=wrap;html=1;align=center;" parent="1" vertex="1">
                    <mxGeometry x="350" y="970" width="100" height="30" as="geometry"/>
                </mxCell>
                <mxCell id="fNfprqZ7PDnBtlyKB6TT-298" style="edgeStyle=orthogonalEdgeStyle;rounded=0;orthogonalLoop=1;jettySize=auto;html=1;exitX=0.5;exitY=1;exitDx=0;exitDy=0;entryX=0.5;entryY=0;entryDx=0;entryDy=0;" parent="1" source="fNfprqZ7PDnBtlyKB6TT-291" target="fNfprqZ7PDnBtlyKB6TT-292" edge="1">
                    <mxGeometry relative="1" as="geometry"/>
                </mxCell>
                <mxCell id="fNfprqZ7PDnBtlyKB6TT-291" value="&lt;span style=&quot;font-size: 14px;&quot;&gt;B100 = 0&lt;/span&gt;" style="rounded=0;whiteSpace=wrap;html=1;align=center;" parent="1" vertex="1">
                    <mxGeometry x="350" y="1020" width="100" height="30" as="geometry"/>
                </mxCell>
                <mxCell id="fNfprqZ7PDnBtlyKB6TT-299" style="edgeStyle=orthogonalEdgeStyle;rounded=0;orthogonalLoop=1;jettySize=auto;html=1;exitX=0.5;exitY=1;exitDx=0;exitDy=0;" parent="1" source="fNfprqZ7PDnBtlyKB6TT-292" edge="1">
                    <mxGeometry relative="1" as="geometry">
                        <mxPoint x="397.7647058823529" y="1110" as="targetPoint"/>
                    </mxGeometry>
                </mxCell>
                <mxCell id="fNfprqZ7PDnBtlyKB6TT-292" value="&lt;span style=&quot;font-size: 14px;&quot;&gt;B50 = 0&lt;/span&gt;" style="rounded=0;whiteSpace=wrap;html=1;align=center;" parent="1" vertex="1">
                    <mxGeometry x="348" y="1068.75" width="100" height="30" as="geometry"/>
                </mxCell>
                <mxCell id="fNfprqZ7PDnBtlyKB6TT-300" style="edgeStyle=orthogonalEdgeStyle;rounded=0;orthogonalLoop=1;jettySize=auto;html=1;exitX=0.5;exitY=1;exitDx=0;exitDy=0;entryX=0.5;entryY=0;entryDx=0;entryDy=0;" parent="1" source="fNfprqZ7PDnBtlyKB6TT-294" target="fNfprqZ7PDnBtlyKB6TT-295" edge="1">
                    <mxGeometry relative="1" as="geometry"/>
                </mxCell>
                <mxCell id="fNfprqZ7PDnBtlyKB6TT-294" value="&lt;span style=&quot;font-size: 14px;&quot;&gt;B20 = 0&lt;/span&gt;" style="rounded=0;whiteSpace=wrap;html=1;align=center;" parent="1" vertex="1">
                    <mxGeometry x="346.25" y="1113.75" width="100" height="30" as="geometry"/>
                </mxCell>
                <mxCell id="fNfprqZ7PDnBtlyKB6TT-295" value="&lt;span style=&quot;font-size: 14px;&quot;&gt;B10 = 0&lt;/span&gt;" style="rounded=0;whiteSpace=wrap;html=1;align=center;" parent="1" vertex="1">
                    <mxGeometry x="348" y="1165" width="100" height="30" as="geometry"/>
                </mxCell>
                <mxCell id="fNfprqZ7PDnBtlyKB6TT-302" style="edgeStyle=orthogonalEdgeStyle;rounded=0;orthogonalLoop=1;jettySize=auto;html=1;exitX=0.5;exitY=1;exitDx=0;exitDy=0;entryX=0.5;entryY=0;entryDx=0;entryDy=0;" parent="1" target="fNfprqZ7PDnBtlyKB6TT-303" edge="1">
                    <mxGeometry relative="1" as="geometry">
                        <mxPoint x="395.25" y="1189" as="sourcePoint"/>
                    </mxGeometry>
                </mxCell>
                <mxCell id="fNfprqZ7PDnBtlyKB6TT-303" value="&lt;span style=&quot;font-size: 14px;&quot;&gt;B5 = 0&lt;/span&gt;" style="rounded=0;whiteSpace=wrap;html=1;align=center;" parent="1" vertex="1">
                    <mxGeometry x="347.25" y="1210" width="100" height="30" as="geometry"/>
                </mxCell>
            </root>
        </mxGraphModel>
    </diagram>
</mxfile>